<svg xmlns="http://www.w3.org/2000/svg" xmlns:xlink="http://www.w3.org/1999/xlink" width="500" zoomAndPan="magnify" viewBox="0 0 375 374.999991" height="500" preserveAspectRatio="xMidYMid meet" version="1.0"><path fill="#ffffff" d="M 171.925781 6.453125 C 181.195312 1.203125 193.015625 1.179688 202.054688 6.453125 L 340.46875 84.480469 C 349.125 89.347656 354.917969 99 354.835938 108.976562 L 354.835938 265.425781 C 354.894531 275.820312 348.53125 285.683594 339.402344 290.457031 L 201.730469 368.125 C 200.558594 368.773438 199.347656 369.339844 198.101562 369.828125 C 196.855469 370.3125 195.578125 370.714844 194.277344 371.03125 C 192.976562 371.347656 191.660156 371.578125 190.328125 371.71875 C 188.996094 371.859375 187.664062 371.910156 186.324219 371.875 C 184.984375 371.835938 183.65625 371.710938 182.332031 371.496094 C 181.011719 371.28125 179.710938 370.980469 178.429688 370.59375 C 177.148438 370.203125 175.898438 369.734375 174.679688 369.179688 C 173.460938 368.625 172.28125 367.992188 171.148438 367.28125 L 129.835938 343.40625 C 127.019531 341.726562 123.855469 340.394531 121.863281 337.671875 C 123.625 335.304688 126.753906 335.003906 129.304688 333.960938 C 135.050781 332.132812 140.3125 329.328125 145.597656 326.359375 C 146.929688 325.433594 148.5625 325.78125 149.835938 326.613281 L 185.066406 346.988281 C 187.582031 348.4375 190.128906 346.523438 192.285156 345.308594 L 327.464844 269.019531 C 329.132812 268.207031 330.0625 266.445312 329.921875 264.613281 L 329.921875 109.671875 C 330.105469 107.585938 328.914062 105.6875 327.023438 104.839844 L 189.703125 27.507812 C 189.304688 27.234375 188.878906 27.027344 188.417969 26.882812 C 187.960938 26.738281 187.492188 26.664062 187.007812 26.664062 C 186.527344 26.664062 186.058594 26.734375 185.597656 26.875 C 185.136719 27.019531 184.710938 27.226562 184.3125 27.496094 L 47.1875 104.992188 C 45.332031 105.835938 44.058594 107.714844 44.289062 109.800781 L 44.289062 264.742188 C 44.128906 266.574219 45.101562 268.300781 46.78125 269.089844 L 83.425781 289.773438 C 90.308594 293.484375 98.753906 295.570312 106.335938 292.84375 C 107.160156 292.535156 107.957031 292.164062 108.722656 291.730469 C 109.492188 291.300781 110.222656 290.8125 110.914062 290.269531 C 111.609375 289.726562 112.257812 289.132812 112.863281 288.492188 C 113.464844 287.851562 114.019531 287.167969 114.515625 286.441406 C 115.015625 285.71875 115.460938 284.957031 115.84375 284.164062 C 116.230469 283.375 116.550781 282.554688 116.8125 281.714844 C 117.070312 280.871094 117.265625 280.015625 117.398438 279.144531 C 117.527344 278.273438 117.589844 277.398438 117.585938 276.515625 L 117.621094 122.5 C 117.460938 120.21875 119.613281 118.328125 121.828125 118.5625 L 139.441406 118.5625 C 141.761719 118.503906 143.578125 120.960938 143.265625 123.253906 L 143.230469 278.242188 C 143.242188 292.011719 137.589844 306.984375 124.851562 313.738281 C 109.164062 321.851562 89.761719 320.148438 74.257812 312.347656 L 34.855469 290.5625 C 25.585938 285.925781 19.363281 275.914062 19.421875 265.53125 L 19.421875 109.082031 C 19.429688 107.816406 19.523438 106.558594 19.703125 105.304688 C 19.878906 104.050781 20.140625 102.816406 20.480469 101.597656 C 20.824219 100.378906 21.242188 99.1875 21.746094 98.023438 C 22.246094 96.863281 22.820312 95.738281 23.46875 94.652344 C 24.121094 93.566406 24.839844 92.527344 25.628906 91.539062 C 26.417969 90.546875 27.265625 89.613281 28.179688 88.738281 C 29.09375 87.863281 30.058594 87.050781 31.078125 86.300781 C 32.101562 85.554688 33.167969 84.875 34.277344 84.269531 Z M 211.835938 114.898438 C 231.847656 113.742188 253.277344 114.132812 271.285156 123.996094 C 285.226562 131.550781 292.953125 147.40625 293.210938 162.910156 C 292.816406 164.996094 290.636719 166.15625 288.644531 166.003906 C 282.847656 165.996094 277.03125 166.085938 271.214844 165.972656 C 268.746094 166.0625 267.320312 163.792969 267.007812 161.613281 C 265.339844 154.195312 261.296875 146.859375 254.320312 143.28125 C 243.609375 137.914062 231.1875 138.179688 219.507812 138.296875 C 210.976562 138.761719 201.8125 139.492188 194.59375 144.496094 C 189.03125 148.296875 187.359375 156.085938 189.34375 162.136719 C 191.195312 166.574219 196.332031 168 200.515625 169.320312 C 224.640625 175.625 250.195312 175.113281 273.867188 183.308594 C 283.660156 186.691406 293.246094 193.273438 296.605469 203.53125 C 300.984375 217.273438 299.074219 233.707031 289.304688 244.738281 C 281.378906 253.824219 269.835938 258.648438 258.304688 261.449219 C 242.972656 264.871094 227.074219 264.949219 211.511719 263.421875 C 196.875 261.753906 181.648438 257.90625 170.347656 247.9375 C 160.683594 239.546875 155.980469 226.476562 156.441406 213.867188 C 156.558594 211.734375 158.679688 210.25 160.730469 210.425781 L 178.113281 210.425781 C 180.453125 210.261719 182.167969 212.28125 182.285156 214.480469 C 183.363281 221.433594 186.015625 228.96875 192.183594 233.023438 C 204.070312 240.695312 218.984375 240.164062 232.589844 240.382812 C 243.867188 239.882812 256.519531 239.734375 265.734375 232.269531 C 270.601562 228.015625 272.027344 220.914062 270.714844 214.792969 C 269.292969 209.625 263.761719 207.226562 259.128906 205.523438 C 235.3125 197.992188 209.472656 200.726562 185.890625 192.195312 C 176.316406 188.8125 167.058594 182.414062 163.382812 172.578125 C 158.25 158.671875 160.601562 141.4375 171.414062 130.777344 C 181.84375 120.171875 197.140625 116.082031 211.628906 114.621094 Z M 211.835938 114.898438 " fill-opacity="1" fill-rule="nonzero"/></svg>