<svg xmlns="http://www.w3.org/2000/svg" xmlns:xlink="http://www.w3.org/1999/xlink" width="500" zoomAndPan="magnify" viewBox="0 0 375 374.999991" height="500" preserveAspectRatio="xMidYMid meet" version="1.0"><defs><clipPath id="0cd1300f33"><path d="M 20.390625 0 L 354.890625 0 L 354.890625 375 L 20.390625 375 Z M 20.390625 0 " clip-rule="nonzero"/></clipPath></defs><g clip-path="url(#0cd1300f33)"><path fill="#ffffff" d="M 353.050781 3.109375 C 351.503906 1.425781 349.332031 0.46875 347.046875 0.46875 L 29.050781 0.46875 C 26.761719 0.46875 24.589844 1.425781 23.042969 3.109375 C 21.496094 4.792969 20.742188 7.054688 20.945312 9.324219 L 49.59375 329.9375 C 49.894531 333.289062 52.230469 336.109375 55.46875 337.035156 L 185.769531 374.222656 C 186.492188 374.425781 187.25 374.53125 188 374.53125 C 188.746094 374.53125 189.503906 374.425781 190.230469 374.222656 L 320.644531 337.035156 C 323.882812 336.109375 326.21875 333.289062 326.519531 329.9375 L 355.152344 9.324219 C 355.355469 7.054688 354.589844 4.792969 353.050781 3.109375 Z M 82.246094 220.058594 L 139.214844 235.851562 L 139.214844 73.652344 L 171.769531 73.652344 L 171.769531 285.082031 L 82.246094 260.273438 Z M 294.289062 163.105469 L 285.710938 262.71875 L 204.324219 285.082031 L 204.324219 247.667969 L 259.261719 232.582031 L 261.296875 202.089844 L 204.324219 211.894531 L 204.324219 73.652344 L 301.988281 73.652344 L 299.179688 106.179688 L 236.878906 106.179688 L 236.878906 171.234375 Z M 294.289062 163.105469 " fill-opacity="1" fill-rule="nonzero"/></g></svg>