<svg xmlns="http://www.w3.org/2000/svg" xmlns:xlink="http://www.w3.org/1999/xlink" width="500" zoomAndPan="magnify" viewBox="0 0 375 374.999991" height="500" preserveAspectRatio="xMidYMid meet" version="1.0"><defs><clipPath id="84e4680c54"><path d="M 20.390625 0 L 354.890625 0 L 354.890625 375 L 20.390625 375 Z M 20.390625 0 " clip-rule="nonzero"/></clipPath></defs><g clip-path="url(#84e4680c54)"><path fill="#ffffff" d="M 353.050781 3.109375 C 351.503906 1.425781 349.332031 0.46875 347.046875 0.46875 L 29.050781 0.46875 C 26.761719 0.46875 24.589844 1.425781 23.042969 3.109375 C 21.496094 4.792969 20.742188 7.054688 20.945312 9.324219 L 49.59375 329.9375 C 49.894531 333.289062 52.230469 336.109375 55.46875 337.035156 L 185.777344 374.222656 C 186.5 374.425781 187.25 374.53125 188.007812 374.53125 C 188.765625 374.53125 189.511719 374.425781 190.238281 374.222656 L 320.652344 337.035156 C 323.890625 336.109375 326.226562 333.289062 326.527344 329.9375 L 355.160156 9.324219 C 355.355469 7.046875 354.589844 4.792969 353.050781 3.109375 Z M 284.464844 113.65625 L 131.371094 113.65625 L 135.007812 155.046875 L 280.78125 155.046875 L 269.847656 277.347656 L 188 302.078125 L 187.191406 301.832031 L 106.277344 277.339844 L 101.867188 227.492188 L 141.496094 227.492188 L 143.234375 246.847656 L 188.453125 256.3125 L 232.867188 246.828125 L 237.597656 194.5 L 98.886719 194.5 L 88.136719 74.09375 L 288.015625 74.09375 Z M 284.464844 113.65625 " fill-opacity="1" fill-rule="nonzero"/></g></svg>