<svg xmlns="http://www.w3.org/2000/svg" xmlns:xlink="http://www.w3.org/1999/xlink" width="500" zoomAndPan="magnify" viewBox="0 0 375 374.999991" height="500" preserveAspectRatio="xMidYMid meet" version="1.0"><path fill="#ffffff" d="M 0 0 L 0 375 L 375 375 L 375 0 Z M 31.25 31.25 L 343.75 31.25 L 343.75 343.75 L 31.25 343.75 Z M 98.816406 156.25 L 98.816406 185.515625 L 138.734375 185.515625 L 138.734375 312.746094 L 171.570312 312.746094 L 171.570312 185.515625 L 212.3125 185.515625 L 212.3125 156.25 Z M 260.988281 158.78125 C 238.207031 160.445312 215.421875 169.984375 215.421875 201.539062 C 215.421875 247.960938 277.953125 247.984375 277.953125 268.921875 C 277.953125 270.90625 278.824219 285.339844 256.746094 285.339844 C 234.667969 285.339844 216.277344 271.453125 216.277344 271.453125 L 216.277344 305.113281 C 216.277344 305.113281 312.5 336.238281 312.5 266.050781 C 312.5 220.488281 249.390625 222.773438 249.390625 200.132812 C 249.390625 191.351562 255.621094 183.136719 272.886719 183.136719 C 290.152344 183.136719 305.421875 193.328125 305.421875 193.328125 L 306.550781 163.332031 C 306.550781 163.332031 283.769531 157.121094 260.988281 158.78125 Z M 260.988281 158.78125 " fill-opacity="1" fill-rule="nonzero"/></svg>