<svg xmlns="http://www.w3.org/2000/svg" xmlns:xlink="http://www.w3.org/1999/xlink" width="500" zoomAndPan="magnify" viewBox="0 0 375 374.999991" height="500" preserveAspectRatio="xMidYMid meet" version="1.0"><path fill="#ffffff" d="M 43.269531 0 C 19.542969 0 0 19.542969 0 43.269531 L 0 86.539062 L 28.847656 86.539062 L 28.847656 43.269531 C 28.847656 35.148438 35.148438 28.847656 43.269531 28.847656 L 331.730469 28.847656 C 339.851562 28.847656 346.152344 35.148438 346.152344 43.269531 L 346.152344 86.539062 L 375 86.539062 L 375 43.269531 C 375 19.542969 355.457031 0 331.730469 0 Z M 28.847656 115.382812 L 28.847656 259.617188 L 57.691406 259.617188 L 57.691406 201.921875 L 72.117188 201.921875 C 90.242188 201.921875 102.960938 189.035156 109.355469 173.078125 L 115.382812 173.078125 L 115.382812 158.652344 C 115.382812 134.921875 95.847656 115.382812 72.117188 115.382812 Z M 144.230469 115.382812 L 144.230469 259.617188 L 173.078125 259.617188 L 173.078125 201.921875 L 201.921875 201.921875 L 201.921875 259.617188 L 230.769531 259.617188 L 230.769531 115.382812 L 201.921875 115.382812 L 201.921875 173.078125 L 173.078125 173.078125 L 173.078125 115.382812 Z M 259.617188 115.382812 L 259.617188 259.617188 L 288.460938 259.617188 L 288.460938 201.921875 L 302.882812 201.921875 C 321.011719 201.921875 333.730469 189.035156 340.125 173.078125 L 346.152344 173.078125 L 346.152344 158.652344 C 346.152344 134.921875 326.617188 115.382812 302.882812 115.382812 Z M 57.691406 144.230469 L 72.117188 144.230469 C 80.113281 144.230469 86.539062 150.65625 86.539062 158.652344 C 86.539062 166.652344 80.113281 173.078125 72.117188 173.078125 L 57.691406 173.078125 Z M 288.460938 144.230469 L 302.882812 144.230469 C 310.882812 144.230469 317.308594 150.65625 317.308594 158.652344 C 317.308594 166.652344 310.882812 173.078125 302.882812 173.078125 L 288.460938 173.078125 Z M 0 288.460938 L 0 331.730469 C 0 355.457031 19.542969 375 43.269531 375 L 331.730469 375 C 355.457031 375 375 355.457031 375 331.730469 L 375 288.460938 L 346.152344 288.460938 L 346.152344 331.730469 C 346.152344 339.851562 339.851562 346.152344 331.730469 346.152344 L 43.269531 346.152344 C 35.148438 346.152344 28.847656 339.851562 28.847656 331.730469 L 28.847656 288.460938 Z M 0 288.460938 " fill-opacity="1" fill-rule="nonzero"/></svg>