<svg xmlns="http://www.w3.org/2000/svg" xmlns:xlink="http://www.w3.org/1999/xlink" width="500" zoomAndPan="magnify" viewBox="0 0 375 374.999991" height="500" preserveAspectRatio="xMidYMid meet" version="1.0"><defs><clipPath id="c7bffa9788"><path d="M 24.84375 0 L 337.59375 0 L 337.59375 375 L 24.84375 375 Z M 24.84375 0 " clip-rule="nonzero"/></clipPath></defs><g clip-path="url(#c7bffa9788)"><path fill="#ffffff" d="M 24.921875 0 L 56.179688 328.125 L 181.21875 375 L 306.257812 328.125 L 337.515625 0 Z M 77 46.875 L 285.191406 46.875 L 281.101562 93.75 L 192.085938 140.625 L 276.921875 140.625 L 268.921875 234.496094 L 269.226562 234.375 L 264.921875 281.25 L 181.21875 312.5 L 97.363281 281.25 L 92.203125 218.75 L 139.425781 218.75 L 141.871094 250.519531 L 181.21875 264.128906 L 220.628906 250.792969 L 226.03125 187.5 L 89.484375 187.5 L 85.457031 140.625 L 177.832031 93.75 L 81.335938 93.75 Z M 77 46.875 " fill-opacity="1" fill-rule="nonzero"/></g></svg>